<?xml version="1.0" encoding="UTF-8" standalone="no"?>
<!DOCTYPE svg PUBLIC "-//W3C//DTD SVG 1.1//EN"
 "http://www.w3.org/Graphics/SVG/1.1/DTD/svg11.dtd">
<!-- Generated by graphviz version 2.47.0 (20210316.0004)
 -->
<!-- Title: dependencies Pages: 1 -->
<svg width="1614pt" height="423pt"
 viewBox="0.00 0.00 1614.00 423.00" xmlns="http://www.w3.org/2000/svg" xmlns:xlink="http://www.w3.org/1999/xlink">
<g id="graph0" class="graph" transform="scale(1 1) rotate(0) translate(4 419)">
<title>dependencies</title>
<polygon fill="white" stroke="transparent" points="-4,4 -4,-419 1610,-419 1610,4 -4,4"/>
<text text-anchor="start" x="782.01" y="-42.4" font-family="Times-12" font-weight="bold" font-size="14.00">Legend</text>
<polygon fill="#ffffb3" stroke="transparent" points="569,-10 569,-30 589,-30 589,-10 569,-10"/>
<text text-anchor="start" x="592.63" y="-15.4" font-family="Times-12" font-size="14.00"> &#160;Declarations</text>
<polygon fill="#8dd3c7" stroke="transparent" points="682,-10 682,-30 702,-30 702,-10 682,-10"/>
<text text-anchor="start" x="705.73" y="-15.4" font-family="Times-12" font-size="14.00"> &#160;Module</text>
<polygon fill="#80b1d3" stroke="transparent" points="768,-10 768,-30 788,-30 788,-10 768,-10"/>
<text text-anchor="start" x="791.78" y="-15.4" font-family="Times-12" font-size="14.00"> &#160;Bootstrap</text>
<polygon fill="#fdb462" stroke="transparent" points="865,-10 865,-30 885,-30 885,-10 865,-10"/>
<text text-anchor="start" x="888.67" y="-15.4" font-family="Times-12" font-size="14.00"> &#160;Providers</text>
<polygon fill="#fb8072" stroke="transparent" points="961,-10 961,-30 981,-30 981,-10 961,-10"/>
<text text-anchor="start" x="984.73" y="-15.4" font-family="Times-12" font-size="14.00"> &#160;Exports</text>
<g id="clust1" class="cluster">
<title>cluster_AppModule</title>
<polygon fill="none" stroke="black" stroke-dasharray="1,5" points="8,-214 8,-407 646,-407 646,-214 8,-214"/>
</g>
<g id="clust3" class="cluster">
<title>cluster_AppModule_imports</title>
<polygon fill="none" stroke="black" points="534,-222 534,-342 638,-342 638,-222 534,-222"/>
</g>
<g id="clust6" class="cluster">
<title>cluster_AppModule_providers</title>
<polygon fill="none" stroke="black" points="16,-290 16,-342 512,-342 512,-290 16,-290"/>
</g>
<g id="clust7" class="cluster">
<title>cluster_AppRedisModule</title>
<polygon fill="none" stroke="black" stroke-dasharray="1,5" points="654,-70 654,-282 844,-282 844,-70 654,-70"/>
</g>
<g id="clust10" class="cluster">
<title>cluster_AppRedisModule_exports</title>
<polygon fill="none" stroke="black" points="662,-222 662,-274 796,-274 796,-222 662,-222"/>
</g>
<g id="clust12" class="cluster">
<title>cluster_AppRedisModule_providers</title>
<polygon fill="none" stroke="black" points="662,-78 662,-130 836,-130 836,-78 662,-78"/>
</g>
<g id="clust13" class="cluster">
<title>cluster_AuthModule</title>
<polygon fill="none" stroke="black" stroke-dasharray="1,5" points="852,-214 852,-282 1396,-282 1396,-214 852,-214"/>
</g>
<g id="clust16" class="cluster">
<title>cluster_AuthModule_exports</title>
<polygon fill="none" stroke="black" points="1282,-222 1282,-274 1388,-274 1388,-222 1282,-222"/>
</g>
<g id="clust18" class="cluster">
<title>cluster_AuthModule_providers</title>
<polygon fill="none" stroke="black" points="860,-222 860,-274 1274,-274 1274,-222 860,-222"/>
</g>
<g id="clust19" class="cluster">
<title>cluster_EmailModule</title>
<polygon fill="none" stroke="black" stroke-dasharray="1,5" points="1061,-78 1061,-206 1187,-206 1187,-78 1061,-78"/>
</g>
<g id="clust22" class="cluster">
<title>cluster_EmailModule_exports</title>
<polygon fill="none" stroke="black" points="1069,-146 1069,-198 1179,-198 1179,-146 1069,-146"/>
</g>
<g id="clust25" class="cluster">
<title>cluster_HttpClientModule</title>
<polygon fill="none" stroke="black" stroke-dasharray="1,5" points="1404,-70 1404,-282 1598,-282 1598,-70 1404,-70"/>
</g>
<g id="clust28" class="cluster">
<title>cluster_HttpClientModule_exports</title>
<polygon fill="none" stroke="black" points="1433,-222 1433,-274 1569,-274 1569,-222 1433,-222"/>
</g>
<g id="clust30" class="cluster">
<title>cluster_HttpClientModule_providers</title>
<polygon fill="none" stroke="black" points="1412,-78 1412,-130 1590,-130 1590,-78 1412,-78"/>
</g>
<g id="clust43" class="cluster">
<title>cluster_UserModule</title>
<polygon fill="none" stroke="black" stroke-dasharray="1,5" points="226,-138 226,-206 646,-206 646,-138 226,-138"/>
</g>
<g id="clust46" class="cluster">
<title>cluster_UserModule_exports</title>
<polygon fill="none" stroke="black" points="534,-146 534,-198 638,-198 638,-146 534,-146"/>
</g>
<g id="clust48" class="cluster">
<title>cluster_UserModule_providers</title>
<polygon fill="none" stroke="black" points="234,-146 234,-198 526,-198 526,-146 234,-146"/>
</g>
<!-- AuthModule -->
<g id="node1" class="node">
<title>AuthModule</title>
<polygon fill="#8dd3c7" stroke="black" points="629.55,-334 626.55,-338 605.55,-338 602.55,-334 542.45,-334 542.45,-298 629.55,-298 629.55,-334"/>
<text text-anchor="middle" x="586" y="-311.8" font-family="Times,serif" font-size="14.00">AuthModule</text>
</g>
<!-- AppModule -->
<g id="node3" class="node">
<title>AppModule</title>
<polygon fill="#8dd3c7" stroke="black" points="488.66,-399 485.66,-403 464.66,-403 461.66,-399 405.34,-399 405.34,-363 488.66,-363 488.66,-399"/>
<text text-anchor="middle" x="447" y="-376.8" font-family="Times,serif" font-size="14.00">AppModule</text>
</g>
<!-- AuthModule&#45;&gt;AppModule -->
<g id="edge1" class="edge">
<title>AuthModule&#45;&gt;AppModule</title>
<path fill="none" stroke="black" d="M586,-334.28C586,-355.32 586,-387 586,-387 586,-387 498.7,-387 498.7,-387"/>
<polygon fill="black" stroke="black" points="498.7,-383.5 488.7,-387 498.7,-390.5 498.7,-383.5"/>
</g>
<!-- AuthService  -->
<g id="node10" class="node">
<title>AuthService </title>
<polygon fill="#fb8072" stroke="black" points="1379.98,-266 1290.02,-266 1290.02,-230 1379.98,-230 1379.98,-266"/>
<text text-anchor="middle" x="1335" y="-243.8" font-family="Times,serif" font-size="14.00">AuthService </text>
</g>
<!-- AuthModule&#45;&gt;AuthService  -->
<g id="edge10" class="edge">
<title>AuthModule&#45;&gt;AuthService </title>
<path fill="none" stroke="black" stroke-dasharray="5,2" d="M629.78,-328C789.99,-328 1335,-328 1335,-328 1335,-328 1335,-276.15 1335,-276.15"/>
<polygon fill="black" stroke="black" points="1338.5,-276.15 1335,-266.15 1331.5,-276.15 1338.5,-276.15"/>
</g>
<!-- UserModule -->
<g id="node2" class="node">
<title>UserModule</title>
<polygon fill="#8dd3c7" stroke="black" points="628.98,-266 625.98,-270 604.98,-270 601.98,-266 543.02,-266 543.02,-230 628.98,-230 628.98,-266"/>
<text text-anchor="middle" x="586" y="-243.8" font-family="Times,serif" font-size="14.00">UserModule</text>
</g>
<!-- UserModule&#45;&gt;AuthModule -->
<g id="edge9" class="edge">
<title>UserModule&#45;&gt;AuthModule</title>
<path fill="none" stroke="black" d="M586,-266.22C586,-266.22 586,-287.73 586,-287.73"/>
<polygon fill="black" stroke="black" points="582.5,-287.73 586,-297.73 589.5,-287.73 582.5,-287.73"/>
</g>
<!-- UserModule&#45;&gt;AppModule -->
<g id="edge2" class="edge">
<title>UserModule&#45;&gt;AppModule</title>
<path fill="none" stroke="black" d="M542.81,-257C535.45,-257 530.13,-257 530.13,-257 530.13,-257 530.13,-375 530.13,-375 530.13,-375 499.05,-375 499.05,-375"/>
<polygon fill="black" stroke="black" points="499.05,-371.5 489.05,-375 499.05,-378.5 499.05,-371.5"/>
</g>
<!-- UserService  -->
<g id="node19" class="node">
<title>UserService </title>
<polygon fill="#fb8072" stroke="black" points="629.9,-190 542.1,-190 542.1,-154 629.9,-154 629.9,-190"/>
<text text-anchor="middle" x="586" y="-167.8" font-family="Times,serif" font-size="14.00">UserService </text>
</g>
<!-- UserModule&#45;&gt;UserService  -->
<g id="edge18" class="edge">
<title>UserModule&#45;&gt;UserService </title>
<path fill="none" stroke="black" stroke-dasharray="5,2" d="M586,-229.99C586,-229.99 586,-200.15 586,-200.15"/>
<polygon fill="black" stroke="black" points="589.5,-200.15 586,-190.15 582.5,-200.15 589.5,-200.15"/>
</g>
<!-- AppService -->
<g id="node4" class="node">
<title>AppService</title>
<ellipse fill="#fdb462" stroke="black" cx="447" cy="-316" rx="56.74" ry="18"/>
<text text-anchor="middle" x="447" y="-311.8" font-family="Times,serif" font-size="14.00">AppService</text>
</g>
<!-- AppService&#45;&gt;AppModule -->
<g id="edge3" class="edge">
<title>AppService&#45;&gt;AppModule</title>
<path fill="none" stroke="black" d="M447,-334.11C447,-334.11 447,-352.99 447,-352.99"/>
<polygon fill="black" stroke="black" points="443.5,-352.99 447,-362.99 450.5,-352.99 443.5,-352.99"/>
</g>
<!-- CreateUserCommand -->
<g id="node5" class="node">
<title>CreateUserCommand</title>
<ellipse fill="#fdb462" stroke="black" cx="278" cy="-316" rx="94.9" ry="18"/>
<text text-anchor="middle" x="278" y="-311.8" font-family="Times,serif" font-size="14.00">CreateUserCommand</text>
</g>
<!-- CreateUserCommand&#45;&gt;AppModule -->
<g id="edge4" class="edge">
<title>CreateUserCommand&#45;&gt;AppModule</title>
<path fill="none" stroke="black" d="M278,-334.02C278,-351.37 278,-375 278,-375 278,-375 395.22,-375 395.22,-375"/>
<polygon fill="black" stroke="black" points="395.22,-378.5 405.22,-375 395.22,-371.5 395.22,-378.5"/>
</g>
<!-- SchemaService -->
<g id="node6" class="node">
<title>SchemaService</title>
<ellipse fill="#fdb462" stroke="black" cx="95" cy="-316" rx="70.62" ry="18"/>
<text text-anchor="middle" x="95" y="-311.8" font-family="Times,serif" font-size="14.00">SchemaService</text>
</g>
<!-- SchemaService&#45;&gt;AppModule -->
<g id="edge5" class="edge">
<title>SchemaService&#45;&gt;AppModule</title>
<path fill="none" stroke="black" d="M95,-334.28C95,-355.32 95,-387 95,-387 95,-387 395.24,-387 395.24,-387"/>
<polygon fill="black" stroke="black" points="395.24,-390.5 405.24,-387 395.24,-383.5 395.24,-390.5"/>
</g>
<!-- AppRedisService  -->
<g id="node7" class="node">
<title>AppRedisService </title>
<polygon fill="#fb8072" stroke="black" points="787.97,-266 670.03,-266 670.03,-230 787.97,-230 787.97,-266"/>
<text text-anchor="middle" x="729" y="-243.8" font-family="Times,serif" font-size="14.00">AppRedisService </text>
</g>
<!-- AppRedisModule -->
<g id="node8" class="node">
<title>AppRedisModule</title>
<polygon fill="#8dd3c7" stroke="black" points="796.54,-190 793.54,-194 772.54,-194 769.54,-190 681.46,-190 681.46,-154 796.54,-154 796.54,-190"/>
<text text-anchor="middle" x="739" y="-167.8" font-family="Times,serif" font-size="14.00">AppRedisModule</text>
</g>
<!-- AppRedisModule&#45;&gt;AuthModule -->
<g id="edge8" class="edge">
<title>AppRedisModule&#45;&gt;AuthModule</title>
<path fill="none" stroke="black" d="M792.25,-190.08C792.25,-226.23 792.25,-304 792.25,-304 792.25,-304 639.74,-304 639.74,-304"/>
<polygon fill="black" stroke="black" points="639.74,-300.5 629.74,-304 639.74,-307.5 639.74,-300.5"/>
</g>
<!-- AppRedisModule&#45;&gt;UserModule -->
<g id="edge17" class="edge">
<title>AppRedisModule&#45;&gt;UserModule</title>
<path fill="none" stroke="black" d="M681.45,-172C664.36,-172 650.11,-172 650.11,-172 650.11,-172 650.11,-248 650.11,-248 650.11,-248 639.12,-248 639.12,-248"/>
<polygon fill="black" stroke="black" points="639.12,-244.5 629.12,-248 639.12,-251.5 639.12,-244.5"/>
</g>
<!-- AppRedisModule&#45;&gt;AppRedisService  -->
<g id="edge6" class="edge">
<title>AppRedisModule&#45;&gt;AppRedisService </title>
<path fill="none" stroke="black" stroke-dasharray="5,2" d="M734.48,-190.01C734.48,-190.01 734.48,-219.85 734.48,-219.85"/>
<polygon fill="black" stroke="black" points="730.98,-219.85 734.48,-229.85 737.98,-219.85 730.98,-219.85"/>
</g>
<!-- AppRedisService -->
<g id="node9" class="node">
<title>AppRedisService</title>
<ellipse fill="#fdb462" stroke="black" cx="749" cy="-104" rx="78.73" ry="18"/>
<text text-anchor="middle" x="749" y="-99.8" font-family="Times,serif" font-size="14.00">AppRedisService</text>
</g>
<!-- AppRedisService&#45;&gt;AppRedisModule -->
<g id="edge7" class="edge">
<title>AppRedisService&#45;&gt;AppRedisModule</title>
<path fill="none" stroke="black" d="M739,-121.87C739,-121.87 739,-143.54 739,-143.54"/>
<polygon fill="black" stroke="black" points="735.5,-143.54 739,-153.54 742.5,-143.54 735.5,-143.54"/>
</g>
<!-- AuthService -->
<g id="node11" class="node">
<title>AuthService</title>
<ellipse fill="#fdb462" stroke="black" cx="1207" cy="-248" rx="59.11" ry="18"/>
<text text-anchor="middle" x="1207" y="-243.8" font-family="Times,serif" font-size="14.00">AuthService</text>
</g>
<!-- AuthService&#45;&gt;AuthModule -->
<g id="edge11" class="edge">
<title>AuthService&#45;&gt;AuthModule</title>
<path fill="none" stroke="black" d="M1207,-266.29C1207,-288.21 1207,-322 1207,-322 1207,-322 639.67,-322 639.67,-322"/>
<polygon fill="black" stroke="black" points="639.67,-318.5 629.67,-322 639.67,-325.5 639.67,-318.5"/>
</g>
<!-- JwtStrategy -->
<g id="node12" class="node">
<title>JwtStrategy</title>
<ellipse fill="#fdb462" stroke="black" cx="1073" cy="-248" rx="56.76" ry="18"/>
<text text-anchor="middle" x="1073" y="-243.8" font-family="Times,serif" font-size="14.00">JwtStrategy</text>
</g>
<!-- JwtStrategy&#45;&gt;AuthModule -->
<g id="edge12" class="edge">
<title>JwtStrategy&#45;&gt;AuthModule</title>
<path fill="none" stroke="black" d="M1073,-266.22C1073,-286.37 1073,-316 1073,-316 1073,-316 639.65,-316 639.65,-316"/>
<polygon fill="black" stroke="black" points="639.65,-312.5 629.65,-316 639.65,-319.5 639.65,-312.5"/>
</g>
<!-- LocalStrategy -->
<g id="node13" class="node">
<title>LocalStrategy</title>
<ellipse fill="#fdb462" stroke="black" cx="933" cy="-248" rx="65.41" ry="18"/>
<text text-anchor="middle" x="933" y="-243.8" font-family="Times,serif" font-size="14.00">LocalStrategy</text>
</g>
<!-- LocalStrategy&#45;&gt;AuthModule -->
<g id="edge13" class="edge">
<title>LocalStrategy&#45;&gt;AuthModule</title>
<path fill="none" stroke="black" d="M933,-266.27C933,-284.56 933,-310 933,-310 933,-310 639.6,-310 639.6,-310"/>
<polygon fill="black" stroke="black" points="639.6,-306.5 629.6,-310 639.6,-313.5 639.6,-306.5"/>
</g>
<!-- EmailService  -->
<g id="node14" class="node">
<title>EmailService </title>
<polygon fill="#fb8072" stroke="black" points="1171.42,-190 1076.58,-190 1076.58,-154 1171.42,-154 1171.42,-190"/>
<text text-anchor="middle" x="1124" y="-167.8" font-family="Times,serif" font-size="14.00">EmailService </text>
</g>
<!-- EmailModule -->
<g id="node15" class="node">
<title>EmailModule</title>
<polygon fill="#8dd3c7" stroke="black" points="1170.49,-122 1167.49,-126 1146.49,-126 1143.49,-122 1077.51,-122 1077.51,-86 1170.49,-86 1170.49,-122"/>
<text text-anchor="middle" x="1124" y="-99.8" font-family="Times,serif" font-size="14.00">EmailModule</text>
</g>
<!-- EmailModule&#45;&gt;EmailService  -->
<g id="edge14" class="edge">
<title>EmailModule&#45;&gt;EmailService </title>
<path fill="none" stroke="black" stroke-dasharray="5,2" d="M1124,-122.22C1124,-122.22 1124,-143.73 1124,-143.73"/>
<polygon fill="black" stroke="black" points="1120.5,-143.73 1124,-153.73 1127.5,-143.73 1120.5,-143.73"/>
</g>
<!-- HttpClientService  -->
<g id="node16" class="node">
<title>HttpClientService </title>
<polygon fill="#fb8072" stroke="black" points="1561.09,-266 1440.91,-266 1440.91,-230 1561.09,-230 1561.09,-266"/>
<text text-anchor="middle" x="1501" y="-243.8" font-family="Times,serif" font-size="14.00">HttpClientService </text>
</g>
<!-- HttpClientModule -->
<g id="node17" class="node">
<title>HttpClientModule</title>
<polygon fill="#8dd3c7" stroke="black" points="1560.16,-190 1557.16,-194 1536.16,-194 1533.16,-190 1441.84,-190 1441.84,-154 1560.16,-154 1560.16,-190"/>
<text text-anchor="middle" x="1501" y="-167.8" font-family="Times,serif" font-size="14.00">HttpClientModule</text>
</g>
<!-- HttpClientModule&#45;&gt;HttpClientService  -->
<g id="edge15" class="edge">
<title>HttpClientModule&#45;&gt;HttpClientService </title>
<path fill="none" stroke="black" stroke-dasharray="5,2" d="M1501,-190.01C1501,-190.01 1501,-219.85 1501,-219.85"/>
<polygon fill="black" stroke="black" points="1497.5,-219.85 1501,-229.85 1504.5,-219.85 1497.5,-219.85"/>
</g>
<!-- HttpClientService -->
<g id="node18" class="node">
<title>HttpClientService</title>
<ellipse fill="#fdb462" stroke="black" cx="1501" cy="-104" rx="80.53" ry="18"/>
<text text-anchor="middle" x="1501" y="-99.8" font-family="Times,serif" font-size="14.00">HttpClientService</text>
</g>
<!-- HttpClientService&#45;&gt;HttpClientModule -->
<g id="edge16" class="edge">
<title>HttpClientService&#45;&gt;HttpClientModule</title>
<path fill="none" stroke="black" d="M1501,-122.22C1501,-122.22 1501,-143.73 1501,-143.73"/>
<polygon fill="black" stroke="black" points="1497.5,-143.73 1501,-153.73 1504.5,-143.73 1497.5,-143.73"/>
</g>
<!-- UserService -->
<g id="node20" class="node">
<title>UserService</title>
<ellipse fill="#fdb462" stroke="black" cx="460" cy="-172" rx="58.44" ry="18"/>
<text text-anchor="middle" x="460" y="-167.8" font-family="Times,serif" font-size="14.00">UserService</text>
</g>
<!-- UserService&#45;&gt;UserModule -->
<g id="edge19" class="edge">
<title>UserService&#45;&gt;UserModule</title>
<path fill="none" stroke="black" d="M510.92,-180.76C510.92,-198.92 510.92,-239 510.92,-239 510.92,-239 532.76,-239 532.76,-239"/>
<polygon fill="black" stroke="black" points="532.76,-242.5 542.76,-239 532.76,-235.5 532.76,-242.5"/>
</g>
<!-- UserSubscriber -->
<g id="node21" class="node">
<title>UserSubscriber</title>
<ellipse fill="#fdb462" stroke="black" cx="313" cy="-172" rx="70.62" ry="18"/>
<text text-anchor="middle" x="313" y="-167.8" font-family="Times,serif" font-size="14.00">UserSubscriber</text>
</g>
<!-- UserSubscriber&#45;&gt;UserModule -->
<g id="edge20" class="edge">
<title>UserSubscriber&#45;&gt;UserModule</title>
<path fill="none" stroke="black" d="M378.13,-179.01C378.13,-197.83 378.13,-248 378.13,-248 378.13,-248 532.93,-248 532.93,-248"/>
<polygon fill="black" stroke="black" points="532.93,-251.5 542.93,-248 532.93,-244.5 532.93,-251.5"/>
</g>
</g>
</svg>
