<?xml version="1.0" encoding="UTF-8" standalone="no"?>
<!DOCTYPE svg PUBLIC "-//W3C//DTD SVG 1.1//EN"
 "http://www.w3.org/Graphics/SVG/1.1/DTD/svg11.dtd">
<!-- Generated by graphviz version 2.47.0 (20210316.0004)
 -->
<!-- Title: dependencies Pages: 1 -->
<svg width="757pt" height="211pt"
 viewBox="0.00 0.00 757.00 211.00" xmlns="http://www.w3.org/2000/svg" xmlns:xlink="http://www.w3.org/1999/xlink">
<g id="graph0" class="graph" transform="scale(1 1) rotate(0) translate(4 207)">
<title>dependencies</title>
<polygon fill="white" stroke="transparent" points="-4,4 -4,-207 753,-207 753,4 -4,4"/>
<text text-anchor="start" x="353.51" y="-42.4" font-family="Times-12" font-weight="bold" font-size="14.00">Legend</text>
<polygon fill="#ffffb3" stroke="transparent" points="140.5,-10 140.5,-30 160.5,-30 160.5,-10 140.5,-10"/>
<text text-anchor="start" x="164.13" y="-15.4" font-family="Times-12" font-size="14.00"> &#160;Declarations</text>
<polygon fill="#8dd3c7" stroke="transparent" points="253.5,-10 253.5,-30 273.5,-30 273.5,-10 253.5,-10"/>
<text text-anchor="start" x="277.23" y="-15.4" font-family="Times-12" font-size="14.00"> &#160;Module</text>
<polygon fill="#80b1d3" stroke="transparent" points="339.5,-10 339.5,-30 359.5,-30 359.5,-10 339.5,-10"/>
<text text-anchor="start" x="363.28" y="-15.4" font-family="Times-12" font-size="14.00"> &#160;Bootstrap</text>
<polygon fill="#fdb462" stroke="transparent" points="436.5,-10 436.5,-30 456.5,-30 456.5,-10 436.5,-10"/>
<text text-anchor="start" x="460.17" y="-15.4" font-family="Times-12" font-size="14.00"> &#160;Providers</text>
<polygon fill="#fb8072" stroke="transparent" points="532.5,-10 532.5,-30 552.5,-30 552.5,-10 532.5,-10"/>
<text text-anchor="start" x="556.23" y="-15.4" font-family="Times-12" font-size="14.00"> &#160;Exports</text>
<g id="clust1" class="cluster">
<title>cluster_AppModule</title>
<polygon fill="none" stroke="black" stroke-dasharray="1,5" points="8,-70 8,-195 741,-195 741,-70 8,-70"/>
</g>
<g id="clust6" class="cluster">
<title>cluster_AppModule_providers</title>
<polygon fill="none" stroke="black" points="237,-78 237,-130 733,-130 733,-78 237,-78"/>
</g>
<g id="clust3" class="cluster">
<title>cluster_AppModule_imports</title>
<polygon fill="none" stroke="black" points="16,-78 16,-130 229,-130 229,-78 16,-78"/>
</g>
<!-- AuthModule -->
<g id="node1" class="node">
<title>AuthModule</title>
<polygon fill="#8dd3c7" stroke="black" points="220.55,-122 217.55,-126 196.55,-126 193.55,-122 133.45,-122 133.45,-86 220.55,-86 220.55,-122"/>
<text text-anchor="middle" x="177" y="-99.8" font-family="Times,serif" font-size="14.00">AuthModule</text>
</g>
<!-- AppModule -->
<g id="node3" class="node">
<title>AppModule</title>
<polygon fill="#8dd3c7" stroke="black" points="357.66,-187 354.66,-191 333.66,-191 330.66,-187 274.34,-187 274.34,-151 357.66,-151 357.66,-187"/>
<text text-anchor="middle" x="316" y="-164.8" font-family="Times,serif" font-size="14.00">AppModule</text>
</g>
<!-- AuthModule&#45;&gt;AppModule -->
<g id="edge1" class="edge">
<title>AuthModule&#45;&gt;AppModule</title>
<path fill="none" stroke="black" d="M177,-122.02C177,-139.37 177,-163 177,-163 177,-163 264.3,-163 264.3,-163"/>
<polygon fill="black" stroke="black" points="264.3,-166.5 274.3,-163 264.3,-159.5 264.3,-166.5"/>
</g>
<!-- UsersModule -->
<g id="node2" class="node">
<title>UsersModule</title>
<polygon fill="#8dd3c7" stroke="black" points="115.92,-122 112.92,-126 91.92,-126 88.92,-122 24.08,-122 24.08,-86 115.92,-86 115.92,-122"/>
<text text-anchor="middle" x="70" y="-99.8" font-family="Times,serif" font-size="14.00">UsersModule</text>
</g>
<!-- UsersModule&#45;&gt;AppModule -->
<g id="edge2" class="edge">
<title>UsersModule&#45;&gt;AppModule</title>
<path fill="none" stroke="black" d="M70,-122.28C70,-143.32 70,-175 70,-175 70,-175 264.27,-175 264.27,-175"/>
<polygon fill="black" stroke="black" points="264.27,-178.5 274.27,-175 264.27,-171.5 264.27,-178.5"/>
</g>
<!-- AppService -->
<g id="node4" class="node">
<title>AppService</title>
<ellipse fill="#fdb462" stroke="black" cx="668" cy="-104" rx="56.74" ry="18"/>
<text text-anchor="middle" x="668" y="-99.8" font-family="Times,serif" font-size="14.00">AppService</text>
</g>
<!-- AppService&#45;&gt;AppModule -->
<g id="edge3" class="edge">
<title>AppService&#45;&gt;AppModule</title>
<path fill="none" stroke="black" d="M668,-122.28C668,-143.32 668,-175 668,-175 668,-175 367.76,-175 367.76,-175"/>
<polygon fill="black" stroke="black" points="367.76,-171.5 357.76,-175 367.76,-178.5 367.76,-171.5"/>
</g>
<!-- CreateUserCommand -->
<g id="node5" class="node">
<title>CreateUserCommand</title>
<ellipse fill="#fdb462" stroke="black" cx="499" cy="-104" rx="94.9" ry="18"/>
<text text-anchor="middle" x="499" y="-99.8" font-family="Times,serif" font-size="14.00">CreateUserCommand</text>
</g>
<!-- CreateUserCommand&#45;&gt;AppModule -->
<g id="edge4" class="edge">
<title>CreateUserCommand&#45;&gt;AppModule</title>
<path fill="none" stroke="black" d="M499,-122.02C499,-139.37 499,-163 499,-163 499,-163 367.98,-163 367.98,-163"/>
<polygon fill="black" stroke="black" points="367.98,-159.5 357.98,-163 367.98,-166.5 367.98,-159.5"/>
</g>
<!-- SchemaService -->
<g id="node6" class="node">
<title>SchemaService</title>
<ellipse fill="#fdb462" stroke="black" cx="316" cy="-104" rx="70.62" ry="18"/>
<text text-anchor="middle" x="316" y="-99.8" font-family="Times,serif" font-size="14.00">SchemaService</text>
</g>
<!-- SchemaService&#45;&gt;AppModule -->
<g id="edge5" class="edge">
<title>SchemaService&#45;&gt;AppModule</title>
<path fill="none" stroke="black" d="M316,-122.11C316,-122.11 316,-140.99 316,-140.99"/>
<polygon fill="black" stroke="black" points="312.5,-140.99 316,-150.99 319.5,-140.99 312.5,-140.99"/>
</g>
</g>
</svg>
