<?xml version="1.0" encoding="UTF-8" standalone="no"?>
<!DOCTYPE svg PUBLIC "-//W3C//DTD SVG 1.1//EN"
 "http://www.w3.org/Graphics/SVG/1.1/DTD/svg11.dtd">
<!-- Generated by graphviz version 2.47.0 (20210316.0004)
 -->
<!-- Title: dependencies Pages: 1 -->
<svg width="752pt" height="211pt"
 viewBox="0.00 0.00 752.00 211.00" xmlns="http://www.w3.org/2000/svg" xmlns:xlink="http://www.w3.org/1999/xlink">
<g id="graph0" class="graph" transform="scale(1 1) rotate(0) translate(4 207)">
<title>dependencies</title>
<polygon fill="white" stroke="transparent" points="-4,4 -4,-207 748,-207 748,4 -4,4"/>
<text text-anchor="start" x="351.01" y="-42.4" font-family="Times-12" font-weight="bold" font-size="14.00">Legend</text>
<polygon fill="#ffffb3" stroke="transparent" points="138,-10 138,-30 158,-30 158,-10 138,-10"/>
<text text-anchor="start" x="161.63" y="-15.4" font-family="Times-12" font-size="14.00"> &#160;Declarations</text>
<polygon fill="#8dd3c7" stroke="transparent" points="251,-10 251,-30 271,-30 271,-10 251,-10"/>
<text text-anchor="start" x="274.73" y="-15.4" font-family="Times-12" font-size="14.00"> &#160;Module</text>
<polygon fill="#80b1d3" stroke="transparent" points="337,-10 337,-30 357,-30 357,-10 337,-10"/>
<text text-anchor="start" x="360.78" y="-15.4" font-family="Times-12" font-size="14.00"> &#160;Bootstrap</text>
<polygon fill="#fdb462" stroke="transparent" points="434,-10 434,-30 454,-30 454,-10 434,-10"/>
<text text-anchor="start" x="457.67" y="-15.4" font-family="Times-12" font-size="14.00"> &#160;Providers</text>
<polygon fill="#fb8072" stroke="transparent" points="530,-10 530,-30 550,-30 550,-10 530,-10"/>
<text text-anchor="start" x="553.73" y="-15.4" font-family="Times-12" font-size="14.00"> &#160;Exports</text>
<g id="clust1" class="cluster">
<title>cluster_AppModule</title>
<polygon fill="none" stroke="black" stroke-dasharray="1,5" points="8,-70 8,-195 736,-195 736,-70 8,-70"/>
</g>
<g id="clust3" class="cluster">
<title>cluster_AppModule_imports</title>
<polygon fill="none" stroke="black" points="520,-78 520,-130 728,-130 728,-78 520,-78"/>
</g>
<g id="clust6" class="cluster">
<title>cluster_AppModule_providers</title>
<polygon fill="none" stroke="black" points="16,-78 16,-130 512,-130 512,-78 16,-78"/>
</g>
<!-- AuthModule -->
<g id="node1" class="node">
<title>AuthModule</title>
<polygon fill="#8dd3c7" stroke="black" points="719.55,-122 716.55,-126 695.55,-126 692.55,-122 632.45,-122 632.45,-86 719.55,-86 719.55,-122"/>
<text text-anchor="middle" x="676" y="-99.8" font-family="Times,serif" font-size="14.00">AuthModule</text>
</g>
<!-- AppModule -->
<g id="node3" class="node">
<title>AppModule</title>
<polygon fill="#8dd3c7" stroke="black" points="488.66,-187 485.66,-191 464.66,-191 461.66,-187 405.34,-187 405.34,-151 488.66,-151 488.66,-187"/>
<text text-anchor="middle" x="447" y="-164.8" font-family="Times,serif" font-size="14.00">AppModule</text>
</g>
<!-- AuthModule&#45;&gt;AppModule -->
<g id="edge1" class="edge">
<title>AuthModule&#45;&gt;AppModule</title>
<path fill="none" stroke="black" d="M676,-122.28C676,-143.32 676,-175 676,-175 676,-175 498.74,-175 498.74,-175"/>
<polygon fill="black" stroke="black" points="498.74,-171.5 488.74,-175 498.74,-178.5 498.74,-171.5"/>
</g>
<!-- UserModule -->
<g id="node2" class="node">
<title>UserModule</title>
<polygon fill="#8dd3c7" stroke="black" points="613.98,-122 610.98,-126 589.98,-126 586.98,-122 528.02,-122 528.02,-86 613.98,-86 613.98,-122"/>
<text text-anchor="middle" x="571" y="-99.8" font-family="Times,serif" font-size="14.00">UserModule</text>
</g>
<!-- UserModule&#45;&gt;AppModule -->
<g id="edge2" class="edge">
<title>UserModule&#45;&gt;AppModule</title>
<path fill="none" stroke="black" d="M571,-122.02C571,-139.37 571,-163 571,-163 571,-163 498.98,-163 498.98,-163"/>
<polygon fill="black" stroke="black" points="498.98,-159.5 488.98,-163 498.98,-166.5 498.98,-159.5"/>
</g>
<!-- AppService -->
<g id="node4" class="node">
<title>AppService</title>
<ellipse fill="#fdb462" stroke="black" cx="447" cy="-104" rx="56.74" ry="18"/>
<text text-anchor="middle" x="447" y="-99.8" font-family="Times,serif" font-size="14.00">AppService</text>
</g>
<!-- AppService&#45;&gt;AppModule -->
<g id="edge3" class="edge">
<title>AppService&#45;&gt;AppModule</title>
<path fill="none" stroke="black" d="M447,-122.11C447,-122.11 447,-140.99 447,-140.99"/>
<polygon fill="black" stroke="black" points="443.5,-140.99 447,-150.99 450.5,-140.99 443.5,-140.99"/>
</g>
<!-- CreateUserCommand -->
<g id="node5" class="node">
<title>CreateUserCommand</title>
<ellipse fill="#fdb462" stroke="black" cx="278" cy="-104" rx="94.9" ry="18"/>
<text text-anchor="middle" x="278" y="-99.8" font-family="Times,serif" font-size="14.00">CreateUserCommand</text>
</g>
<!-- CreateUserCommand&#45;&gt;AppModule -->
<g id="edge4" class="edge">
<title>CreateUserCommand&#45;&gt;AppModule</title>
<path fill="none" stroke="black" d="M278,-122.02C278,-139.37 278,-163 278,-163 278,-163 395.22,-163 395.22,-163"/>
<polygon fill="black" stroke="black" points="395.22,-166.5 405.22,-163 395.22,-159.5 395.22,-166.5"/>
</g>
<!-- SchemaService -->
<g id="node6" class="node">
<title>SchemaService</title>
<ellipse fill="#fdb462" stroke="black" cx="95" cy="-104" rx="70.62" ry="18"/>
<text text-anchor="middle" x="95" y="-99.8" font-family="Times,serif" font-size="14.00">SchemaService</text>
</g>
<!-- SchemaService&#45;&gt;AppModule -->
<g id="edge5" class="edge">
<title>SchemaService&#45;&gt;AppModule</title>
<path fill="none" stroke="black" d="M95,-122.28C95,-143.32 95,-175 95,-175 95,-175 395.24,-175 395.24,-175"/>
<polygon fill="black" stroke="black" points="395.24,-178.5 405.24,-175 395.24,-171.5 395.24,-178.5"/>
</g>
</g>
</svg>
