<?xml version="1.0" encoding="UTF-8" standalone="no"?>
<!DOCTYPE svg PUBLIC "-//W3C//DTD SVG 1.1//EN"
 "http://www.w3.org/Graphics/SVG/1.1/DTD/svg11.dtd">
<!-- Generated by graphviz version 2.47.0 (20210316.0004)
 -->
<!-- Title: dependencies Pages: 1 -->
<svg width="698pt" height="284pt"
 viewBox="0.00 0.00 698.00 284.00" xmlns="http://www.w3.org/2000/svg" xmlns:xlink="http://www.w3.org/1999/xlink">
<g id="graph0" class="graph" transform="scale(1 1) rotate(0) translate(4 280)">
<title>dependencies</title>
<polygon fill="white" stroke="transparent" points="-4,4 -4,-280 694,-280 694,4 -4,4"/>
<text text-anchor="start" x="324.01" y="-42.4" font-family="Times-12" font-weight="bold" font-size="14.00">Legend</text>
<polygon fill="#ffffb3" stroke="transparent" points="111,-10 111,-30 131,-30 131,-10 111,-10"/>
<text text-anchor="start" x="134.63" y="-15.4" font-family="Times-12" font-size="14.00"> &#160;Declarations</text>
<polygon fill="#8dd3c7" stroke="transparent" points="224,-10 224,-30 244,-30 244,-10 224,-10"/>
<text text-anchor="start" x="247.73" y="-15.4" font-family="Times-12" font-size="14.00"> &#160;Module</text>
<polygon fill="#80b1d3" stroke="transparent" points="310,-10 310,-30 330,-30 330,-10 310,-10"/>
<text text-anchor="start" x="333.78" y="-15.4" font-family="Times-12" font-size="14.00"> &#160;Bootstrap</text>
<polygon fill="#fdb462" stroke="transparent" points="407,-10 407,-30 427,-30 427,-10 407,-10"/>
<text text-anchor="start" x="430.67" y="-15.4" font-family="Times-12" font-size="14.00"> &#160;Providers</text>
<polygon fill="#fb8072" stroke="transparent" points="503,-10 503,-30 523,-30 523,-10 503,-10"/>
<text text-anchor="start" x="526.73" y="-15.4" font-family="Times-12" font-size="14.00"> &#160;Exports</text>
<g id="clust1" class="cluster">
<title>cluster_AuthModule</title>
<polygon fill="none" stroke="black" stroke-dasharray="1,5" points="8,-70 8,-268 682,-268 682,-70 8,-70"/>
</g>
<g id="clust3" class="cluster">
<title>cluster_AuthModule_imports</title>
<polygon fill="none" stroke="black" points="438,-78 438,-130 674,-130 674,-78 438,-78"/>
</g>
<g id="clust6" class="cluster">
<title>cluster_AuthModule_providers</title>
<polygon fill="none" stroke="black" points="16,-78 16,-130 430,-130 430,-78 16,-78"/>
</g>
<g id="clust4" class="cluster">
<title>cluster_AuthModule_exports</title>
<polygon fill="none" stroke="black" points="310,-208 310,-260 416,-260 416,-208 310,-208"/>
</g>
<!-- AppRedisModule -->
<g id="node1" class="node">
<title>AppRedisModule</title>
<polygon fill="#8dd3c7" stroke="black" points="665.54,-122 662.54,-126 641.54,-126 638.54,-122 550.46,-122 550.46,-86 665.54,-86 665.54,-122"/>
<text text-anchor="middle" x="608" y="-99.8" font-family="Times,serif" font-size="14.00">AppRedisModule</text>
</g>
<!-- AuthModule -->
<g id="node3" class="node">
<title>AuthModule</title>
<polygon fill="#8dd3c7" stroke="black" points="406.55,-187 403.55,-191 382.55,-191 379.55,-187 319.45,-187 319.45,-151 406.55,-151 406.55,-187"/>
<text text-anchor="middle" x="363" y="-164.8" font-family="Times,serif" font-size="14.00">AuthModule</text>
</g>
<!-- AppRedisModule&#45;&gt;AuthModule -->
<g id="edge1" class="edge">
<title>AppRedisModule&#45;&gt;AuthModule</title>
<path fill="none" stroke="black" d="M608,-122.28C608,-143.32 608,-175 608,-175 608,-175 416.8,-175 416.8,-175"/>
<polygon fill="black" stroke="black" points="416.8,-171.5 406.8,-175 416.8,-178.5 416.8,-171.5"/>
</g>
<!-- UserModule -->
<g id="node2" class="node">
<title>UserModule</title>
<polygon fill="#8dd3c7" stroke="black" points="531.98,-122 528.98,-126 507.98,-126 504.98,-122 446.02,-122 446.02,-86 531.98,-86 531.98,-122"/>
<text text-anchor="middle" x="489" y="-99.8" font-family="Times,serif" font-size="14.00">UserModule</text>
</g>
<!-- UserModule&#45;&gt;AuthModule -->
<g id="edge2" class="edge">
<title>UserModule&#45;&gt;AuthModule</title>
<path fill="none" stroke="black" d="M489,-122.02C489,-139.37 489,-163 489,-163 489,-163 416.72,-163 416.72,-163"/>
<polygon fill="black" stroke="black" points="416.72,-159.5 406.72,-163 416.72,-166.5 416.72,-159.5"/>
</g>
<!-- AuthService  -->
<g id="node4" class="node">
<title>AuthService </title>
<polygon fill="#fb8072" stroke="black" points="407.98,-252 318.02,-252 318.02,-216 407.98,-216 407.98,-252"/>
<text text-anchor="middle" x="363" y="-229.8" font-family="Times,serif" font-size="14.00">AuthService </text>
</g>
<!-- AuthModule&#45;&gt;AuthService  -->
<g id="edge3" class="edge">
<title>AuthModule&#45;&gt;AuthService </title>
<path fill="none" stroke="black" stroke-dasharray="5,2" d="M363,-187.11C363,-187.11 363,-205.99 363,-205.99"/>
<polygon fill="black" stroke="black" points="359.5,-205.99 363,-215.99 366.5,-205.99 359.5,-205.99"/>
</g>
<!-- AuthService -->
<g id="node5" class="node">
<title>AuthService</title>
<ellipse fill="#fdb462" stroke="black" cx="363" cy="-104" rx="59.11" ry="18"/>
<text text-anchor="middle" x="363" y="-99.8" font-family="Times,serif" font-size="14.00">AuthService</text>
</g>
<!-- AuthService&#45;&gt;AuthModule -->
<g id="edge4" class="edge">
<title>AuthService&#45;&gt;AuthModule</title>
<path fill="none" stroke="black" d="M363,-122.11C363,-122.11 363,-140.99 363,-140.99"/>
<polygon fill="black" stroke="black" points="359.5,-140.99 363,-150.99 366.5,-140.99 359.5,-140.99"/>
</g>
<!-- JwtStrategy -->
<g id="node6" class="node">
<title>JwtStrategy</title>
<ellipse fill="#fdb462" stroke="black" cx="229" cy="-104" rx="56.76" ry="18"/>
<text text-anchor="middle" x="229" y="-99.8" font-family="Times,serif" font-size="14.00">JwtStrategy</text>
</g>
<!-- JwtStrategy&#45;&gt;AuthModule -->
<g id="edge5" class="edge">
<title>JwtStrategy&#45;&gt;AuthModule</title>
<path fill="none" stroke="black" d="M229,-122.02C229,-139.37 229,-163 229,-163 229,-163 309.12,-163 309.12,-163"/>
<polygon fill="black" stroke="black" points="309.12,-166.5 319.12,-163 309.12,-159.5 309.12,-166.5"/>
</g>
<!-- LocalStrategy -->
<g id="node7" class="node">
<title>LocalStrategy</title>
<ellipse fill="#fdb462" stroke="black" cx="89" cy="-104" rx="65.41" ry="18"/>
<text text-anchor="middle" x="89" y="-99.8" font-family="Times,serif" font-size="14.00">LocalStrategy</text>
</g>
<!-- LocalStrategy&#45;&gt;AuthModule -->
<g id="edge6" class="edge">
<title>LocalStrategy&#45;&gt;AuthModule</title>
<path fill="none" stroke="black" d="M89,-122.28C89,-143.32 89,-175 89,-175 89,-175 309.28,-175 309.28,-175"/>
<polygon fill="black" stroke="black" points="309.28,-178.5 319.28,-175 309.28,-171.5 309.28,-178.5"/>
</g>
</g>
</svg>
